<svg width="63" height="63" viewBox="0 0 63 63" fill="none" xmlns="http://www.w3.org/2000/svg">
<path d="M30.4062 39.7813C30.7187 40.0938 31.0833 40.25 31.5 40.25C31.9167 40.25 32.2812 40.0938 32.5937 39.7813L41.3437 31.0313C41.8125 30.5625 41.9292 30.0021 41.6937 29.35C41.4604 28.7 40.9792 28.375 40.25 28.375L22.75 28.375C22.0208 28.375 21.5396 28.7 21.3062 29.35C21.0708 30.0021 21.1875 30.5625 21.6562 31.0313L30.4062 39.7813ZM31.5 62.75C27.1771 62.75 23.1146 61.9292 19.3125 60.2875C15.5104 58.6479 12.2031 56.4219 9.39062 53.6094C6.57812 50.7969 4.35208 47.4896 2.71249 43.6875C1.07083 39.8854 0.249994 35.8229 0.249995 31.5C0.249995 27.1771 1.07083 23.1146 2.7125 19.3125C4.35208 15.5104 6.57812 12.2031 9.39062 9.39063C12.2031 6.57813 15.5104 4.35104 19.3125 2.70938C23.1146 1.0698 27.1771 0.250005 31.5 0.250005C35.8229 0.250006 39.8854 1.0698 43.6875 2.70938C47.4896 4.35105 50.7969 6.57813 53.6094 9.39064C56.4219 12.2031 58.6479 15.5104 60.2875 19.3125C61.9292 23.1146 62.75 27.1771 62.75 31.5C62.75 35.8229 61.9292 39.8854 60.2875 43.6875C58.6479 47.4896 56.4219 50.7969 53.6094 53.6094C50.7969 56.4219 47.4896 58.6479 43.6875 60.2875C39.8854 61.9292 35.8229 62.75 31.5 62.75Z" fill="white"/>
</svg>
