<svg width="24" height="24" viewBox="0 0 24 24" fill="none" xmlns="http://www.w3.org/2000/svg">
<path d="M9.5 4.5V7H3.25V20.75H17V14.5H19.5V22C19.5 22.3315 19.3683 22.6495 19.1339 22.8839C18.8995 23.1183 18.5815 23.25 18.25 23.25H2C1.66848 23.25 1.35054 23.1183 1.11612 22.8839C0.881696 22.6495 0.75 22.3315 0.75 22V5.75C0.75 5.41848 0.881696 5.10054 1.11612 4.86612C1.35054 4.6317 1.66848 4.5 2 4.5H9.5ZM23.25 0.75V10.75H20.75V5.01625L11.0087 14.7587L9.24125 12.9913L18.9812 3.25H13.25V0.75H23.25Z" fill="white"/>
</svg>
