<svg width="33" height="32" viewBox="0 0 33 32" fill="none" xmlns="http://www.w3.org/2000/svg">
<path d="M16.5 0.25C14.366 0.25 12.2529 0.670319 10.2814 1.48696C8.30985 2.3036 6.51847 3.50056 5.00951 5.00952C1.96205 8.05698 0.25 12.1902 0.25 16.5C0.25 23.6825 4.91375 29.7763 11.365 31.9375C12.1775 32.0675 12.4375 31.5638 12.4375 31.125V28.3788C7.93625 29.3538 6.9775 26.2013 6.9775 26.2013C6.23 24.3162 5.17375 23.8125 5.17375 23.8125C3.695 22.805 5.2875 22.8375 5.2875 22.8375C6.9125 22.9513 7.77375 24.5113 7.77375 24.5113C9.1875 26.9813 11.5763 26.25 12.5025 25.86C12.6488 24.8038 13.0712 24.0888 13.5262 23.6825C9.91875 23.2763 6.1325 21.8788 6.1325 15.6875C6.1325 13.8838 6.75 12.4375 7.80625 11.2838C7.64375 10.8775 7.075 9.1875 7.96875 6.99375C7.96875 6.99375 9.33375 6.555 12.4375 8.65125C13.7212 8.29375 15.1187 8.115 16.5 8.115C17.8813 8.115 19.2787 8.29375 20.5625 8.65125C23.6663 6.555 25.0312 6.99375 25.0312 6.99375C25.925 9.1875 25.3563 10.8775 25.1938 11.2838C26.25 12.4375 26.8675 13.8838 26.8675 15.6875C26.8675 21.895 23.065 23.26 19.4412 23.6663C20.0263 24.17 20.5625 25.1613 20.5625 26.6725V31.125C20.5625 31.5638 20.8225 32.0838 21.6513 31.9375C28.1025 29.76 32.75 23.6825 32.75 16.5C32.75 14.366 32.3297 12.2529 31.513 10.2814C30.6964 8.30985 29.4994 6.51847 27.9905 5.00952C26.4815 3.50056 24.6901 2.3036 22.7186 1.48696C20.7471 0.670319 18.634 0.25 16.5 0.25Z" fill="white"/>
</svg>
