<svg width="63" height="63" viewBox="0 0 63 63" fill="none" xmlns="http://www.w3.org/2000/svg">
<path d="M32.5937 23.2188C32.2812 22.9063 31.9167 22.75 31.5 22.75C31.0833 22.75 30.7187 22.9063 30.4062 23.2188L21.6562 31.9688C21.1875 32.4375 21.0708 32.9979 21.3062 33.65C21.5396 34.3 22.0208 34.625 22.75 34.625L40.25 34.625C40.9792 34.625 41.4604 34.3 41.6937 33.65C41.9292 32.9979 41.8125 32.4375 41.3437 31.9687L32.5937 23.2188ZM31.5 0.250003C35.8229 0.250002 39.8854 1.07084 43.6875 2.7125C47.4896 4.35209 50.7969 6.57812 53.6094 9.39062C56.4219 12.2031 58.6479 15.5104 60.2875 19.3125C61.9292 23.1146 62.75 27.1771 62.75 31.5C62.75 35.8229 61.9292 39.8854 60.2875 43.6875C58.6479 47.4896 56.4219 50.7969 53.6094 53.6094C50.7969 56.4219 47.4896 58.649 43.6875 60.2906C39.8854 61.9302 35.8229 62.75 31.5 62.75C27.1771 62.75 23.1146 61.9302 19.3125 60.2906C15.5104 58.649 12.2031 56.4219 9.39062 53.6094C6.57812 50.7969 4.35208 47.4896 2.7125 43.6875C1.07083 39.8854 0.249998 35.8229 0.249997 31.5C0.249997 27.1771 1.07083 23.1146 2.7125 19.3125C4.35208 15.5104 6.57812 12.2031 9.39062 9.39063C12.2031 6.57813 15.5104 4.35209 19.3125 2.71251C23.1146 1.07084 27.1771 0.250003 31.5 0.250003Z" fill="white"/>
</svg>
